<svg width="250" height="250" viewBox="0 0 250 250" fill="none" xmlns="http://www.w3.org/2000/svg">
<rect width="250" height="250" fill="#F5F5F5"/>
<g id="Desktop - 50" clip-path="url(#clip0_0_1)">
<rect width="1440" height="1645" transform="translate(-595 -330)" fill="#181818"/>
<g id="Frame 1">
<g id="Ellipse 2" opacity="0.4" filter="url(#filter0_f_0_1)">
<circle cx="954" cy="-279" r="335" fill="url(#paint0_linear_0_1)"/>
</g>
</g>
<g id="Group 33550">
<circle id="Ellipse 37" cx="125" cy="125" r="125" fill="#1FBFBC" fill-opacity="0.23"/>
<path id="Vector" fill-rule="evenodd" clip-rule="evenodd" d="M162.349 107.657C164.427 109.92 164.427 113.589 162.349 115.852L119.776 162.21C117.697 164.473 114.328 164.473 112.25 162.21L90.963 139.031C88.8847 136.768 88.8847 133.099 90.963 130.836C93.0412 128.573 96.4107 128.573 98.489 130.836L116.013 149.918L154.823 107.657C156.901 105.395 160.271 105.395 162.349 107.657Z" fill="#1FBFBC"/>
</g>
</g>
<defs>
<filter id="filter0_f_0_1" x="77.1599" y="-1155.84" width="1753.68" height="1753.68" filterUnits="userSpaceOnUse" color-interpolation-filters="sRGB">
<feFlood flood-opacity="0" result="BackgroundImageFix"/>
<feBlend mode="normal" in="SourceGraphic" in2="BackgroundImageFix" result="shape"/>
<feGaussianBlur stdDeviation="270.92" result="effect1_foregroundBlur_0_1"/>
</filter>
<linearGradient id="paint0_linear_0_1" x1="954" y1="-614" x2="954" y2="56" gradientUnits="userSpaceOnUse">
<stop stop-color="#DD4161"/>
<stop offset="1" stop-color="#000307"/>
</linearGradient>
<clipPath id="clip0_0_1">
<rect width="1440" height="1645" fill="white" transform="translate(-595 -330)"/>
</clipPath>
</defs>
</svg>
